<svg width="80" height="80" viewBox="0 0 80 80" fill="none" xmlns="http://www.w3.org/2000/svg">
  <rect width="80" height="80" rx="20" fill="#E3F2FD"/>
  <path d="M52.5 27.5C50.25 25.25 47.375 23.875 44.25 23.25C41.125 22.625 37.875 23 35 24.25C32.125 25.5 29.625 27.625 28 30.25C26.375 32.875 25.625 35.875 25.875 38.875C26.125 41.875 27.375 44.75 29.375 47C30.875 48.75 32.75 50.125 34.875 51L34.5 54.5C34.5 54.75 34.625 55 34.875 55.125C35 55.25 35.25 55.25 35.5 55.25C35.625 55.25 35.75 55.25 35.875 55.125L39.75 53.375C42.25 53.875 44.875 53.75 47.25 52.875C49.625 52 51.75 50.5 53.375 48.5C55 46.5 56 44.125 56.375 41.625C56.75 39.125 56.375 36.5 55.375 34.125C54.375 31.75 52.75 29.75 50.75 28.25L52.5 27.5Z" fill="#2563EB"/>
  <path d="M48 36.25C47.75 36 47.375 36 47.125 36.125L43.625 38.25C43.125 38.125 42.625 38 42.125 37.875C41 37.625 39.875 37.625 38.75 37.875C38.25 38 37.75 38.125 37.25 38.25L33.75 36.125C33.5 36 33.125 36 32.875 36.25C32.625 36.5 32.625 36.875 32.875 37.125L35.375 39.875L35 45.125C35 45.375 35.125 45.625 35.375 45.75C35.5 45.875 35.75 45.875 35.875 45.875C36 45.875 36.125 45.875 36.25 45.75L38.5 44.375C39.125 44.5 39.75 44.5 40.375 44.5C41 44.5 41.625 44.5 42.25 44.375L44.5 45.75C44.625 45.875 44.75 45.875 44.875 45.875C45 45.875 45.25 45.875 45.375 45.75C45.625 45.625 45.75 45.375 45.75 45.125L45.375 39.875L47.875 37.125C48.125 36.875 48.125 36.5 48 36.25Z" fill="white"/>
</svg>
